# xmcd
#
# Track frame offsets:
#	150
#	19552
#	38035
#	58207
#	75627
#	91652
#	108615
#	129060
#	148045
#	168307
#	196137
#	226115
#	244392
#	263295
#	284812
#	309292
#
# Disc length: 4360
#
# Revision: 2
# Processed by: cddbd v1.5.1PL0 Copyright (c) Steve Scherf et al.
# Submitted via: audiograbber 1.80
# Normalized: r1:DSETVAR1
#
DISCID=ca110610
DTITLE=Various Artist - Dance R&B Anthems The Platinum Collection Disc 2
DYEAR=1900
DGENRE=
TTITLE0=Shanice - I Love Your Smile
TTITLE1=Color Me Bad - I Wanna Sex You Up
TTITLE2=Toni Braxton - You're Makin' Me High
TTITLE3=Groove Theory - Tell Me
TTITLE4=Diana King - Shy Guy
TTITLE5=Joe - I'm In Love
TTITLE6=Hi Five - She's Playing Hard To Get
TTITLE7=Zhane - Shame
TTITLE8=Imajin feat Keith Murray - Shorty (You Keep Playin' With My Mind)
TTITLE9=R Kelly and Public Announcement - She's Got That Vibe
TTITLE10=Bubba - I Like Your Style
TTITLE11=Portrait - Honey Dip
TTITLE12=C&C Music Factory - Do You Wanna Get Funky
TTITLE13=Nuttin' Nyce - Down 4 Whateva
TTITLE14=AK Soul - I Like It
TTITLE15=Shabba Ranks feat Maxi Priest - Housecall
EXTD=
EXTT0=
EXTT1=
EXTT2=
EXTT3=
EXTT4=
EXTT5=
EXTT6=
EXTT7=
EXTT8=
EXTT9=
EXTT10=
EXTT11=
EXTT12=
EXTT13=
EXTT14=
EXTT15=
PLAYORDER=
